{
  "accessors": [
    {
      "bufferView": 1,
      "componentType": 5126,
      "count": 693,
      "max": [
        19.593349456787109,
        5.861720085144043,
        1.3578399419784546
      ],
      "min": [
        -19.593349456787109,
        -7.7185001373291016,
        -1.6090899705886841
      ],
      "type": "VEC3"
    },
    {
      "bufferView": 1,
      "byteOffset": 8316,
      "componentType": 5126,
      "count": 693,
      "max": [
        0.99576932191848755,
        0.99941706657409668,
        0.99945253133773804
      ],
      "min": [
        -0.9957689642906189,
        -0.94904023408889771,
        -0.98786282539367676
      ],
      "type": "VEC3"
    },
    {
      "bufferView": 2,
      "componentType": 5126,
      "count": 693,
      "max": [
        1,
        0.19086724519729614,
        0.23865273594856262,
        1
      ],
      "min": [
        0,
        -0.24395671486854553,
        -0.23855745792388916,
        -1
      ],
      "type": "VEC4"
    },
    {
      "bufferView": 0,
      "componentType": 5125,
      "count": 2421,
      "max": [
        692
      ],
      "min": [
        0
      ],
      "type": "SCALAR"
    }
  ],
  "asset": {
    "extras": {
      "author": "pasqual (https://sketchfab.com/pasqual)",
      "license": "CC-BY-4.0 (http://creativecommons.org/licenses/by/4.0/)",
      "source": "https://sketchfab.com/models/f376bd06d35a43e9b09c61e3a1c39d8c",
      "title": "Logo Batman"
    },
    "generator": "Sketchfab-3.29.4-rc1",
    "version": "2.0"
  },
  "bufferViews": [
    {
      "buffer": 0,
      "byteLength": 9684,
      "byteOffset": 0,
      "name": "floatBufferViews",
      "target": 34963
    },
    {
      "buffer": 0,
      "byteLength": 16632,
      "byteOffset": 9684,
      "byteStride": 12,
      "name": "floatBufferViews",
      "target": 34962
    },
    {
      "buffer": 0,
      "byteLength": 11088,
      "byteOffset": 26316,
      "byteStride": 16,
      "name": "floatBufferViews",
      "target": 34962
    }
  ],
  "buffers": [
    {
      "byteLength": 37404,
      "uri": "scene.bin"
    }
  ],
  "materials": [
    {
      "doubleSided": true,
      "emissiveFactor": [
        0,
        0,
        0
      ],
      "name": "Material.001",
      "pbrMetallicRoughness": {
        "baseColorFactor": [
          0.5,
          0.5,
          0.5,
          1
        ],
        "metallicFactor": 0,
        "roughnessFactor": 0.59999999999999998
      }
    }
  ],
  "meshes": [
    {
      "name": "Plane",
      "primitives": [
        {
          "attributes": {
            "NORMAL": 1,
            "POSITION": 0,
            "TANGENT": 2
          },
          "indices": 3,
          "material": 0,
          "mode": 4
        }
      ]
    }
  ],
  "nodes": [
    {
      "children": [
        1
      ],
      "name": "RootNode (gltf orientation matrix)",
      "rotation": [
        -0.70710678118654746,
        -0,
        -0,
        0.70710678118654757
      ]
    },
    {
      "children": [
        2
      ],
      "name": "RootNode (model correction matrix)"
    },
    {
      "children": [
        3
      ],
      "name": "Root"
    },
    {
      "children": [
        4
      ],
      "matrix": [
        0.11575000000000002,
        0,
        0,
        0,
        0,
        -0.023900000000000008,
        0.11326000000000003,
        0,
        0,
        -0.11326000000000003,
        -0.023900000000000008,
        0,
        -0.024480000000000005,
        0,
        1.27295,
        1
      ],
      "name": "Plane"
    },
    {
      "mesh": 0,
      "name": "Plane"
    }
  ],
  "scene": 0,
  "scenes": [
    {
      "name": "OSG_Scene",
      "nodes": [
        0
      ]
    }
  ]
}

