{
  "accessors": [
    {
      "bufferView": 2,
      "componentType": 5126,
      "count": 33265,
      "max": [
        248.40538024902344,
        354.72250366210938,
        110.89802551269531
      ],
      "min": [
        -380.0384521484375,
        -321.54043579101562,
        -120.16830444335938
      ],
      "type": "VEC3"
    },
    {
      "bufferView": 2,
      "byteOffset": 399180,
      "componentType": 5126,
      "count": 33265,
      "max": [
        1,
        1,
        1
      ],
      "min": [
        -1,
        -1,
        -1
      ],
      "type": "VEC3"
    },
    {
      "bufferView": 3,
      "componentType": 5126,
      "count": 33265,
      "max": [
        1,
        1,
        1,
        1
      ],
      "min": [
        1,
        1,
        1,
        1
      ],
      "type": "VEC4"
    },
    {
      "bufferView": 1,
      "componentType": 5126,
      "count": 33265,
      "max": [
        0.99999576807022095,
        0.98234802484512329
      ],
      "min": [
        0.00011386037658667192,
        0.010410308837890625
      ],
      "type": "VEC2"
    },
    {
      "bufferView": 0,
      "componentType": 5125,
      "count": 194991,
      "max": [
        33264
      ],
      "min": [
        0
      ],
      "type": "SCALAR"
    },
    {
      "bufferView": 2,
      "byteOffset": 798360,
      "componentType": 5126,
      "count": 33441,
      "max": [
        245.42442321777344,
        350.1090087890625,
        106.140380859375
      ],
      "min": [
        -374.74954223632812,
        -320.91189575195312,
        -114.60671997070312
      ],
      "type": "VEC3"
    },
    {
      "bufferView": 2,
      "byteOffset": 1199652,
      "componentType": 5126,
      "count": 33441,
      "max": [
        1,
        0.99979805946350098,
        1
      ],
      "min": [
        -1,
        -0.99994701147079468,
        -1
      ],
      "type": "VEC3"
    },
    {
      "bufferView": 3,
      "byteOffset": 532240,
      "componentType": 5126,
      "count": 33441,
      "max": [
        1,
        1,
        1,
        1
      ],
      "min": [
        1,
        1,
        1,
        1
      ],
      "type": "VEC4"
    },
    {
      "bufferView": 1,
      "byteOffset": 266120,
      "componentType": 5126,
      "count": 33441,
      "max": [
        0.9999881386756897,
        0.79376488924026489
      ],
      "min": [
        1.1060427823395003e-05,
        0.0077052116394042969
      ],
      "type": "VEC2"
    },
    {
      "bufferView": 0,
      "byteOffset": 779964,
      "componentType": 5125,
      "count": 195003,
      "max": [
        33440
      ],
      "min": [
        0
      ],
      "type": "SCALAR"
    },
    {
      "bufferView": 2,
      "byteOffset": 1600944,
      "componentType": 5126,
      "count": 33536,
      "max": [
        242.69747924804688,
        349.90625,
        110.07788848876953
      ],
      "min": [
        -374.24349975585938,
        -320.5498046875,
        -116.17341613769531
      ],
      "type": "VEC3"
    },
    {
      "bufferView": 2,
      "byteOffset": 2003376,
      "componentType": 5126,
      "count": 33536,
      "max": [
        0.99997174739837646,
        1,
        1
      ],
      "min": [
        -0.99977016448974609,
        -0.99999231100082397,
        -1
      ],
      "type": "VEC3"
    },
    {
      "bufferView": 3,
      "byteOffset": 1067296,
      "componentType": 5126,
      "count": 33536,
      "max": [
        1,
        1,
        1,
        1
      ],
      "min": [
        1,
        1,
        1,
        1
      ],
      "type": "VEC4"
    },
    {
      "bufferView": 1,
      "byteOffset": 533648,
      "componentType": 5126,
      "count": 33536,
      "max": [
        0.99999707937240601,
        0.99841427803039551
      ],
      "min": [
        3.0952083761803806e-05,
        0.077518463134765625
      ],
      "type": "VEC2"
    },
    {
      "bufferView": 0,
      "byteOffset": 1559976,
      "componentType": 5125,
      "count": 195003,
      "max": [
        33535
      ],
      "min": [
        0
      ],
      "type": "SCALAR"
    },
    {
      "bufferView": 2,
      "byteOffset": 2405808,
      "componentType": 5126,
      "count": 33386,
      "max": [
        241.10073852539062,
        345.79080200195312,
        106.38004302978516
      ],
      "min": [
        -374.78140258789062,
        -320.42050170898438,
        -113.68633270263672
      ],
      "type": "VEC3"
    },
    {
      "bufferView": 2,
      "byteOffset": 2806440,
      "componentType": 5126,
      "count": 33386,
      "max": [
        1,
        1,
        1
      ],
      "min": [
        -0.9999622106552124,
        -0.99997764825820923,
        -1
      ],
      "type": "VEC3"
    },
    {
      "bufferView": 3,
      "byteOffset": 1603872,
      "componentType": 5126,
      "count": 33386,
      "max": [
        1,
        1,
        1,
        1
      ],
      "min": [
        1,
        1,
        1,
        1
      ],
      "type": "VEC4"
    },
    {
      "bufferView": 1,
      "byteOffset": 801936,
      "componentType": 5126,
      "count": 33386,
      "max": [
        0.99999529123306274,
        0.99855208396911621
      ],
      "min": [
        8.6999125414877199e-06,
        0.012323617935180664
      ],
      "type": "VEC2"
    },
    {
      "bufferView": 0,
      "byteOffset": 2339988,
      "componentType": 5125,
      "count": 195003,
      "max": [
        33385
      ],
      "min": [
        0
      ],
      "type": "SCALAR"
    },
    {
      "bufferView": 2,
      "byteOffset": 3207072,
      "componentType": 5126,
      "count": 33365,
      "max": [
        241.06060791015625,
        344.98178100585938,
        105.47365570068359
      ],
      "min": [
        -372.04049682617188,
        -320.08853149414062,
        -110.60078430175781
      ],
      "type": "VEC3"
    },
    {
      "bufferView": 2,
      "byteOffset": 3607452,
      "componentType": 5126,
      "count": 33365,
      "max": [
        1,
        0.99984586238861084,
        1
      ],
      "min": [
        -0.99998492002487183,
        -0.99993234872817993,
        -1
      ],
      "type": "VEC3"
    },
    {
      "bufferView": 3,
      "byteOffset": 2138048,
      "componentType": 5126,
      "count": 33365,
      "max": [
        1,
        1,
        1,
        1
      ],
      "min": [
        1,
        1,
        1,
        1
      ],
      "type": "VEC4"
    },
    {
      "bufferView": 1,
      "byteOffset": 1069024,
      "componentType": 5126,
      "count": 33365,
      "max": [
        0.9999966025352478,
        0.91563618183135986
      ],
      "min": [
        2.7144128722511596e-08,
        0.005166172981262207
      ],
      "type": "VEC2"
    },
    {
      "bufferView": 0,
      "byteOffset": 3120000,
      "componentType": 5125,
      "count": 195000,
      "max": [
        33364
      ],
      "min": [
        0
      ],
      "type": "SCALAR"
    },
    {
      "bufferView": 2,
      "byteOffset": 4007832,
      "componentType": 5126,
      "count": 33558,
      "max": [
        240.6505126953125,
        344.98178100585938,
        100.92462921142578
      ],
      "min": [
        -370.976806640625,
        -319.75656127929688,
        -112.40782165527344
      ],
      "type": "VEC3"
    },
    {
      "bufferView": 2,
      "byteOffset": 4410528,
      "componentType": 5126,
      "count": 33558,
      "max": [
        1,
        0.99994778633117676,
        1
      ],
      "min": [
        -1,
        -0.99992400407791138,
        -1
      ],
      "type": "VEC3"
    },
    {
      "bufferView": 3,
      "byteOffset": 2671888,
      "componentType": 5126,
      "count": 33558,
      "max": [
        1,
        1,
        1,
        1
      ],
      "min": [
        1,
        1,
        1,
        1
      ],
      "type": "VEC4"
    },
    {
      "bufferView": 1,
      "byteOffset": 1335944,
      "componentType": 5126,
      "count": 33558,
      "max": [
        0.9999881386756897,
        0.99125128984451294
      ],
      "min": [
        2.641110768308863e-05,
        0.093790173530578613
      ],
      "type": "VEC2"
    },
    {
      "bufferView": 0,
      "byteOffset": 3900000,
      "componentType": 5125,
      "count": 195000,
      "max": [
        33557
      ],
      "min": [
        0
      ],
      "type": "SCALAR"
    },
    {
      "bufferView": 2,
      "byteOffset": 4813224,
      "componentType": 5126,
      "count": 33561,
      "max": [
        240.38764953613281,
        344.45822143554688,
        105.19615173339844
      ],
      "min": [
        -371.30490112304688,
        -315.45828247070312,
        -115.74321746826172
      ],
      "type": "VEC3"
    },
    {
      "bufferView": 2,
      "byteOffset": 5215956,
      "componentType": 5126,
      "count": 33561,
      "max": [
        1,
        1,
        1
      ],
      "min": [
        -0.99984568357467651,
        -0.9999958872795105,
        -1
      ],
      "type": "VEC3"
    },
    {
      "bufferView": 3,
      "byteOffset": 3208816,
      "componentType": 5126,
      "count": 33561,
      "max": [
        1,
        1,
        1,
        1
      ],
      "min": [
        1,
        1,
        1,
        1
      ],
      "type": "VEC4"
    },
    {
      "bufferView": 1,
      "byteOffset": 1604408,
      "componentType": 5126,
      "count": 33561,
      "max": [
        0.99999594688415527,
        0.98529243469238281
      ],
      "min": [
        3.0934816095395945e-06,
        0.0073833465576171875
      ],
      "type": "VEC2"
    },
    {
      "bufferView": 0,
      "byteOffset": 4680000,
      "componentType": 5125,
      "count": 195003,
      "max": [
        33560
      ],
      "min": [
        0
      ],
      "type": "SCALAR"
    },
    {
      "bufferView": 2,
      "byteOffset": 5618688,
      "componentType": 5126,
      "count": 33416,
      "max": [
        240.42279052734375,
        340.72149658203125,
        105.37919616699219
      ],
      "min": [
        -371.158935546875,
        -316.56375122070312,
        -110.15767669677734
      ],
      "type": "VEC3"
    },
    {
      "bufferView": 2,
      "byteOffset": 6019680,
      "componentType": 5126,
      "count": 33416,
      "max": [
        1,
        1,
        1
      ],
      "min": [
        -1,
        -1,
        -1
      ],
      "type": "VEC3"
    },
    {
      "bufferView": 3,
      "byteOffset": 3745792,
      "componentType": 5126,
      "count": 33416,
      "max": [
        1,
        1,
        1,
        1
      ],
      "min": [
        1,
        1,
        1,
        1
      ],
      "type": "VEC4"
    },
    {
      "bufferView": 1,
      "byteOffset": 1872896,
      "componentType": 5126,
      "count": 33416,
      "max": [
        0.99994146823883057,
        0.93898642063140869
      ],
      "min": [
        6.5240004914812744e-05,
        0.011707186698913574
      ],
      "type": "VEC2"
    },
    {
      "bufferView": 0,
      "byteOffset": 5460012,
      "componentType": 5125,
      "count": 195000,
      "max": [
        33415
      ],
      "min": [
        0
      ],
      "type": "SCALAR"
    },
    {
      "bufferView": 2,
      "byteOffset": 6420672,
      "componentType": 5126,
      "count": 33557,
      "max": [
        240.21162414550781,
        345.05276489257812,
        100.21608734130859
      ],
      "min": [
        -364.14974975585938,
        -315.18112182617188,
        -115.37045288085938
      ],
      "type": "VEC3"
    },
    {
      "bufferView": 2,
      "byteOffset": 6823356,
      "componentType": 5126,
      "count": 33557,
      "max": [
        1,
        1,
        1
      ],
      "min": [
        -1,
        -0.99998295307159424,
        -1
      ],
      "type": "VEC3"
    },
    {
      "bufferView": 3,
      "byteOffset": 4280448,
      "componentType": 5126,
      "count": 33557,
      "max": [
        1,
        1,
        1,
        1
      ],
      "min": [
        1,
        1,
        1,
        1
      ],
      "type": "VEC4"
    },
    {
      "bufferView": 1,
      "byteOffset": 2140224,
      "componentType": 5126,
      "count": 33557,
      "max": [
        0.99995481967926025,
        0.99064755439758301
      ],
      "min": [
        1.2981871805095579e-05,
        0.10091078281402588
      ],
      "type": "VEC2"
    },
    {
      "bufferView": 0,
      "byteOffset": 6240012,
      "componentType": 5125,
      "count": 195000,
      "max": [
        33556
      ],
      "min": [
        0
      ],
      "type": "SCALAR"
    },
    {
      "bufferView": 2,
      "byteOffset": 7226040,
      "componentType": 5126,
      "count": 33561,
      "max": [
        239.82032775878906,
        342.97506713867188,
        105.09841918945312
      ],
      "min": [
        -370.20468139648438,
        -315.42938232421875,
        -110.80652618408203
      ],
      "type": "VEC3"
    },
    {
      "bufferView": 2,
      "byteOffset": 7628772,
      "componentType": 5126,
      "count": 33561,
      "max": [
        0.99944865703582764,
        0.99999338388442993,
        1
      ],
      "min": [
        -0.99985086917877197,
        -0.99993306398391724,
        -1
      ],
      "type": "VEC3"
    },
    {
      "bufferView": 3,
      "byteOffset": 4817360,
      "componentType": 5126,
      "count": 33561,
      "max": [
        1,
        1,
        1,
        1
      ],
      "min": [
        1,
        1,
        1,
        1
      ],
      "type": "VEC4"
    },
    {
      "bufferView": 1,
      "byteOffset": 2408680,
      "componentType": 5126,
      "count": 33561,
      "max": [
        0.99997502565383911,
        0.9953233003616333
      ],
      "min": [
        6.6580956627149135e-05,
        0.0087281465530395508
      ],
      "type": "VEC2"
    },
    {
      "bufferView": 0,
      "byteOffset": 7020012,
      "componentType": 5125,
      "count": 195003,
      "max": [
        33560
      ],
      "min": [
        0
      ],
      "type": "SCALAR"
    },
    {
      "bufferView": 2,
      "byteOffset": 8031504,
      "componentType": 5126,
      "count": 7970,
      "max": [
        240.00044250488281,
        335.474853515625,
        99.976478576660156
      ],
      "min": [
        -19.621303558349609,
        -190.86087036132812,
        -11.114397048950195
      ],
      "type": "VEC3"
    },
    {
      "bufferView": 2,
      "byteOffset": 8127144,
      "componentType": 5126,
      "count": 7970,
      "max": [
        0.99988424777984619,
        0.99988502264022827,
        1
      ],
      "min": [
        -0.99970030784606934,
        -0.99996352195739746,
        -1
      ],
      "type": "VEC3"
    },
    {
      "bufferView": 3,
      "byteOffset": 5354336,
      "componentType": 5126,
      "count": 7970,
      "max": [
        1,
        1,
        1,
        1
      ],
      "min": [
        1,
        1,
        1,
        1
      ],
      "type": "VEC4"
    },
    {
      "bufferView": 1,
      "byteOffset": 2677168,
      "componentType": 5126,
      "count": 7970,
      "max": [
        0.99997717142105103,
        0.77980411052703857
      ],
      "min": [
        5.5951422837097198e-06,
        0.49047410488128662
      ],
      "type": "VEC2"
    },
    {
      "bufferView": 0,
      "byteOffset": 7800024,
      "componentType": 5125,
      "count": 45444,
      "max": [
        7969
      ],
      "min": [
        0
      ],
      "type": "SCALAR"
    },
    {
      "bufferView": 2,
      "byteOffset": 8222784,
      "componentType": 5126,
      "count": 33148,
      "max": [
        251.8848876953125,
        354.72360229492188,
        111.99607086181641
      ],
      "min": [
        -386.08935546875,
        -334.13107299804688,
        -121.57193756103516
      ],
      "type": "VEC3"
    },
    {
      "bufferView": 2,
      "byteOffset": 8620560,
      "componentType": 5126,
      "count": 33148,
      "max": [
        1,
        1,
        1
      ],
      "min": [
        -1,
        -1,
        -1
      ],
      "type": "VEC3"
    },
    {
      "bufferView": 3,
      "byteOffset": 5481856,
      "componentType": 5126,
      "count": 33148,
      "max": [
        1,
        1,
        1,
        1
      ],
      "min": [
        1,
        1,
        1,
        1
      ],
      "type": "VEC4"
    },
    {
      "bufferView": 1,
      "byteOffset": 2740928,
      "componentType": 5126,
      "count": 33148,
      "max": [
        0.99991059303283691,
        0.98848271369934082
      ],
      "min": [
        0.0002277547464473173,
        0.0078443288803100586
      ],
      "type": "VEC2"
    },
    {
      "bufferView": 0,
      "byteOffset": 7981800,
      "componentType": 5125,
      "count": 194880,
      "max": [
        33147
      ],
      "min": [
        0
      ],
      "type": "SCALAR"
    }
  ],
  "asset": {
    "extras": {
      "author": "UJWAL CHAUHAN (https://sketchfab.com/ubros27)",
      "license": "CC-BY-4.0 (http://creativecommons.org/licenses/by/4.0/)",
      "source": "https://sketchfab.com/3d-models/cloud-render-test-2f1158c45ebf45118221984136cb9c71",
      "title": "Cloud Render Test"
    },
    "generator": "Sketchfab-8.59.0",
    "version": "2.0"
  },
  "bufferViews": [
    {
      "buffer": 0,
      "byteLength": 8761320,
      "byteOffset": 0,
      "name": "floatBufferViews",
      "target": 34963
    },
    {
      "buffer": 0,
      "byteLength": 3006112,
      "byteOffset": 8761320,
      "byteStride": 8,
      "name": "floatBufferViews",
      "target": 34962
    },
    {
      "buffer": 0,
      "byteLength": 9018336,
      "byteOffset": 11767432,
      "byteStride": 12,
      "name": "floatBufferViews",
      "target": 34962
    },
    {
      "buffer": 0,
      "byteLength": 6012224,
      "byteOffset": 20785768,
      "byteStride": 16,
      "name": "floatBufferViews",
      "target": 34962
    }
  ],
  "buffers": [
    {
      "byteLength": 26797992,
      "uri": "scene.bin"
    }
  ],
  "materials": [
    {
      "alphaMode": "BLEND",
      "doubleSided": true,
      "name": "Scene_-_Root",
      "pbrMetallicRoughness": {
        "baseColorFactor": [
          0.63819618891004903,
          0.63819618891004903,
          0.63819618891004903,
          0.014754792401320917
        ],
        "metallicFactor": 0,
        "roughnessFactor": 1
      }
    }
  ],
  "meshes": [
    {
      "primitives": [
        {
          "attributes": {
            "COLOR_0": 2,
            "NORMAL": 1,
            "POSITION": 0,
            "TEXCOORD_0": 3
          },
          "indices": 4,
          "material": 0,
          "mode": 4
        }
      ]
    },
    {
      "primitives": [
        {
          "attributes": {
            "COLOR_0": 7,
            "NORMAL": 6,
            "POSITION": 5,
            "TEXCOORD_0": 8
          },
          "indices": 9,
          "material": 0,
          "mode": 4
        }
      ]
    },
    {
      "primitives": [
        {
          "attributes": {
            "COLOR_0": 12,
            "NORMAL": 11,
            "POSITION": 10,
            "TEXCOORD_0": 13
          },
          "indices": 14,
          "material": 0,
          "mode": 4
        }
      ]
    },
    {
      "primitives": [
        {
          "attributes": {
            "COLOR_0": 17,
            "NORMAL": 16,
            "POSITION": 15,
            "TEXCOORD_0": 18
          },
          "indices": 19,
          "material": 0,
          "mode": 4
        }
      ]
    },
    {
      "primitives": [
        {
          "attributes": {
            "COLOR_0": 22,
            "NORMAL": 21,
            "POSITION": 20,
            "TEXCOORD_0": 23
          },
          "indices": 24,
          "material": 0,
          "mode": 4
        }
      ]
    },
    {
      "primitives": [
        {
          "attributes": {
            "COLOR_0": 27,
            "NORMAL": 26,
            "POSITION": 25,
            "TEXCOORD_0": 28
          },
          "indices": 29,
          "material": 0,
          "mode": 4
        }
      ]
    },
    {
      "primitives": [
        {
          "attributes": {
            "COLOR_0": 32,
            "NORMAL": 31,
            "POSITION": 30,
            "TEXCOORD_0": 33
          },
          "indices": 34,
          "material": 0,
          "mode": 4
        }
      ]
    },
    {
      "primitives": [
        {
          "attributes": {
            "COLOR_0": 37,
            "NORMAL": 36,
            "POSITION": 35,
            "TEXCOORD_0": 38
          },
          "indices": 39,
          "material": 0,
          "mode": 4
        }
      ]
    },
    {
      "primitives": [
        {
          "attributes": {
            "COLOR_0": 42,
            "NORMAL": 41,
            "POSITION": 40,
            "TEXCOORD_0": 43
          },
          "indices": 44,
          "material": 0,
          "mode": 4
        }
      ]
    },
    {
      "primitives": [
        {
          "attributes": {
            "COLOR_0": 47,
            "NORMAL": 46,
            "POSITION": 45,
            "TEXCOORD_0": 48
          },
          "indices": 49,
          "material": 0,
          "mode": 4
        }
      ]
    },
    {
      "primitives": [
        {
          "attributes": {
            "COLOR_0": 52,
            "NORMAL": 51,
            "POSITION": 50,
            "TEXCOORD_0": 53
          },
          "indices": 54,
          "material": 0,
          "mode": 4
        }
      ]
    },
    {
      "primitives": [
        {
          "attributes": {
            "COLOR_0": 57,
            "NORMAL": 56,
            "POSITION": 55,
            "TEXCOORD_0": 58
          },
          "indices": 59,
          "material": 0,
          "mode": 4
        }
      ]
    }
  ],
  "nodes": [
    {
      "children": [
        1
      ],
      "name": "RootNode (gltf orientation matrix)",
      "rotation": [
        -0.70710678118654746,
        -0,
        -0,
        0.70710678118654757
      ]
    },
    {
      "children": [
        2
      ],
      "name": "RootNode (model correction matrix)"
    },
    {
      "children": [
        3,
        4,
        5,
        6,
        7,
        8,
        9,
        10,
        11,
        12,
        13,
        14
      ],
      "name": "Volume_Mes"
    },
    {
      "mesh": 0,
      "name": ""
    },
    {
      "mesh": 1,
      "name": ""
    },
    {
      "mesh": 2,
      "name": ""
    },
    {
      "mesh": 3,
      "name": ""
    },
    {
      "mesh": 4,
      "name": ""
    },
    {
      "mesh": 5,
      "name": ""
    },
    {
      "mesh": 6,
      "name": ""
    },
    {
      "mesh": 7,
      "name": ""
    },
    {
      "mesh": 8,
      "name": ""
    },
    {
      "mesh": 9,
      "name": ""
    },
    {
      "mesh": 10,
      "name": ""
    },
    {
      "mesh": 11,
      "name": ""
    }
  ],
  "scene": 0,
  "scenes": [
    {
      "name": "OSG_Scene",
      "nodes": [
        0
      ]
    }
  ]
}

